<?xml version="1.0" encoding="UTF-8" standalone="no"?>
<!-- Created with Inkscape (http://www.inkscape.org/) -->

<svg
   version="1.1"
   id="svg2"
   xml:space="preserve"
   width="610.66595"
   height="365.25507"
   viewBox="0 0 610.66595 365.25508"
   sodipodi:docname="pn-logo-white.svg"
   inkscape:version="1.1.1 (3bf5ae0d25, 2021-09-20)"
   xmlns:inkscape="http://www.inkscape.org/namespaces/inkscape"
   xmlns:sodipodi="http://sodipodi.sourceforge.net/DTD/sodipodi-0.dtd"
   xmlns="http://www.w3.org/2000/svg"
   xmlns:svg="http://www.w3.org/2000/svg"><defs
     id="defs6"><clipPath
       clipPathUnits="userSpaceOnUse"
       id="clipPath18"><path
         d="M 0,1000 H 1500 V 0 H 0 Z"
         id="path16" /></clipPath></defs><sodipodi:namedview
     id="namedview4"
     pagecolor="#ffffff"
     bordercolor="#666666"
     borderopacity="1.0"
     inkscape:pageshadow="2"
     inkscape:pageopacity="0.0"
     inkscape:pagecheckerboard="0"
     showgrid="false"
     inkscape:zoom="0.43699202"
     inkscape:cx="187.64645"
     inkscape:cy="527.46959"
     inkscape:window-width="1920"
     inkscape:window-height="1013"
     inkscape:window-x="-9"
     inkscape:window-y="-9"
     inkscape:window-maximized="1"
     inkscape:current-layer="g8" /><g
     id="g8"
     inkscape:groupmode="layer"
     inkscape:label="PN Vector File"
     transform="matrix(1.3333333,0,0,-1.3333333,-694.66732,849.29398)"><g
       id="g12"><g
         id="g14"
         clip-path="url(#clipPath18)"><g
           id="g20"
           transform="translate(740.7656,549.4385)"><path
             d="M 0,0 C -19.624,2.354 -35,18.726 -35.769,38.791 H 0 Z M 14.662,-70.579 9.739,-75.502 V -70.414 0 38.791 H 45.508 C 44.959,24.453 36.945,11.585 24.491,4.734 V -6.078 c 18.702,7.91 30.786,26.14 30.786,46.445 v 8.162 H 9.739 V 64.813 L 42.115,72.908 0,87.532 V 48.529 h -45.537 v -8.162 c 0,-26.152 20.02,-47.709 45.537,-50.169 v -60.612 c -19.279,-0.417 -34.205,-3.268 -34.205,-6.729 0,-3.745 17.495,-6.781 39.074,-6.781 21.58,0 39.075,3.036 39.075,6.781 0,3.159 -12.443,5.811 -29.282,6.564"
             style="fill:#ffffff;fill-opacity:1;fill-rule:nonzero;stroke:none"
             id="path22" /></g><g
           id="g24"
           transform="translate(708.8408,512.4468)"><path
             d="m 0,0 c -1.28,-1.106 -3.137,-1.66 -5.57,-1.66 h -5.279 v 12.327 h 5.611 c 2.285,0 4.05,-0.552 5.294,-1.656 C 1.299,7.905 1.92,6.403 1.92,4.505 1.92,2.607 1.28,1.104 0,0 m 6.107,-5.5 c 1.299,1.068 2.3,2.432 3,4.09 0.701,1.659 1.05,3.576 1.05,5.749 0,1.971 -0.275,3.759 -0.829,5.363 -0.553,1.602 -1.382,3.011 -2.487,4.227 -1.105,1.217 -2.566,2.156 -4.382,2.821 -1.815,0.664 -3.911,0.995 -6.287,0.995 h -14.87 v -40.217 h 7.849 v 13.765 h 6.274 c 2.229,0 4.243,0.268 6.04,0.802 1.796,0.533 3.345,1.336 4.642,2.405"
             style="fill:#ffffff;fill-opacity:1;fill-rule:nonzero;stroke:none"
             id="path26" /></g><g
           id="g28"
           transform="translate(801.8975,530.8965)"><path
             d="M 0,0 V -27.17 H -0.111 L -17.995,0 h -7.932 v -40.216 h 7.932 v 26.645 h 0.111 l 17.69,-26.645 H 7.96 V 0 Z"
             style="fill:#ffffff;fill-opacity:1;fill-rule:nonzero;stroke:none"
             id="path30" /></g><g
           id="g32"
           transform="translate(551.6045,423.1904)"><path
             d="M 0,0 C 0,5.085 -4.027,5.085 -6.617,5.085 H -21.969 V -5.037 h 15.352 c 2.59,0 6.617,0 6.617,5.037 m 8.636,0 c 0,-7.483 -5.228,-12.281 -12.856,-12.281 h -17.749 v -8.971 h -8.635 v 33.58 H -4.22 C 3.408,12.328 8.636,7.484 8.636,0"
             style="fill:#ffffff;fill-opacity:1;fill-rule:nonzero;stroke:none"
             id="path34" /></g><g
           id="g36"
           transform="translate(586.8828,401.458)"><path
             d="m 0,0 c -14.773,0 -21.106,5.613 -21.106,17.319 v 16.742 h 8.635 V 17.319 c 0,-4.702 1.296,-10.074 12.471,-10.074 11.179,0 12.475,5.42 12.475,10.074 V 34.061 H 21.11 V 17.319 C 21.11,5.66 14.729,0 0,0"
             style="fill:#ffffff;fill-opacity:1;fill-rule:nonzero;stroke:none"
             id="path38" /></g><g
           id="g40"
           transform="translate(654.7822,428.2754)"><path
             d="m 0,0 h -16.312 v -26.337 h -8.633 V 0 H -41.257 V 7.243 H 0 Z"
             style="fill:#ffffff;fill-opacity:1;fill-rule:nonzero;stroke:none"
             id="path42" /></g><g
           id="g44"
           transform="translate(701.3428,428.2754)"><path
             d="m 0,0 h -16.312 v -26.337 h -8.632 V 0 H -41.256 V 7.243 H 0 Z"
             style="fill:#ffffff;fill-opacity:1;fill-rule:nonzero;stroke:none"
             id="path46" /></g><g
           id="g48"
           transform="translate(774.9844,435.5186)"><path
             d="M 0,0 V -33.58 H -11.751 L -34.636,-8.395 V -33.58 h -8.635 V 0 h 11.706 L -8.633,-25.233 V 0 Z"
             style="fill:#ffffff;fill-opacity:1;fill-rule:nonzero;stroke:none"
             id="path50" /></g><g
           id="g52"
           transform="translate(810.5029,415.5146)"><path
             d="M 0,0 -6.811,13.625 -13.671,0 Z m 3.216,-6.428 h -20.103 l -3.597,-7.148 h -9.498 l 17.319,33.58 h 11.655 l 17.367,-33.58 H 6.813 Z"
             style="fill:#ffffff;fill-opacity:1;fill-rule:nonzero;stroke:none"
             id="path54" /></g><g
           id="g56"
           transform="translate(866.5117,428.2754)"><path
             d="m 0,0 h -16.312 v -26.337 h -8.635 V 0 H -41.259 V 7.243 H 0 Z"
             style="fill:#ffffff;fill-opacity:1;fill-rule:nonzero;stroke:none"
             id="path58" /></g><path
           d="m 880.681,401.938 h -8.636 v 33.58 h 8.636 z"
           style="fill:#ffffff;fill-opacity:1;fill-rule:nonzero;stroke:none"
           id="path60" /><g
           id="g62"
           transform="translate(920.6475,418.7773)"><path
             d="m 0,0 c 0,6.812 -3.456,9.979 -12.474,9.979 -9.018,0 -12.473,-3.12 -12.473,-9.979 0,-6.908 3.503,-10.074 12.473,-10.074 C -3.503,-10.074 0,-6.86 0,0 m -33.584,0 c 0,11.13 6.334,17.222 21.11,17.222 14.729,0 21.107,-6.141 21.107,-17.222 0,-11.13 -6.378,-17.319 -21.107,-17.319 -14.776,0 -21.11,6.14 -21.11,17.319"
             style="fill:#ffffff;fill-opacity:1;fill-rule:nonzero;stroke:none"
             id="path64" /></g><g
           id="g66"
           transform="translate(979,435.5186)"><path
             d="M 0,0 V -33.58 H -11.754 L -34.636,-8.395 V -33.58 h -8.635 V 0 h 11.706 L -8.636,-25.233 V 0 Z"
             style="fill:#ffffff;fill-opacity:1;fill-rule:nonzero;stroke:none"
             id="path68" /></g><g
           id="g70"
           transform="translate(600.0508,377.7344)"><path
             d="m 0,0 v -5.145 h 3.773 c 1.109,0 1.925,0.211 2.451,0.632 0.526,0.42 0.789,1.067 0.789,1.941 0,0.873 -0.263,1.52 -0.789,1.941 C 5.698,-0.21 4.882,0 3.773,0 Z m 0,-7.729 v -6.672 H -2.741 V 2.583 h 6.587 c 1.933,0 3.42,-0.456 4.459,-1.37 1.04,-0.913 1.558,-2.176 1.558,-3.785 0,-1.61 -0.518,-2.871 -1.558,-3.786 C 7.266,-7.271 5.779,-7.729 3.846,-7.729 Z"
             style="fill:#ffffff;fill-opacity:1;fill-rule:nonzero;stroke:none"
             id="path72" /></g><g
           id="g74"
           transform="translate(633.6816,370.0312)"><path
             d="m 0,0 c 0,-1.15 -0.187,-2.174 -0.559,-3.076 -0.372,-0.903 -0.884,-1.636 -1.541,-2.202 -0.655,-0.567 -1.415,-0.994 -2.28,-1.286 -0.865,-0.291 -1.807,-0.438 -2.827,-0.438 -1.019,0 -1.961,0.147 -2.826,0.438 -0.865,0.292 -1.625,0.719 -2.28,1.286 -0.657,0.566 -1.169,1.299 -1.541,2.202 -0.373,0.902 -0.559,1.926 -0.559,3.076 v 10.286 h 2.741 V 0.206 c 0,-1.554 0.399,-2.705 1.196,-3.453 0.797,-0.748 1.886,-1.121 3.269,-1.121 1.384,0 2.473,0.373 3.27,1.121 0.797,0.748 1.195,1.899 1.195,3.453 v 10.08 H 0 Z"
             style="fill:#ffffff;fill-opacity:1;fill-rule:nonzero;stroke:none"
             id="path76" /></g><g
           id="g78"
           transform="translate(656.4453,377.7217)"><path
             d="M 0,0 H -5.496 V -14.389 H -8.237 V 0 h -5.496 V 2.596 H 0 Z"
             style="fill:#ffffff;fill-opacity:1;fill-rule:nonzero;stroke:none"
             id="path80" /></g><g
           id="g82"
           transform="translate(678.3994,377.7217)"><path
             d="M 0,0 H -5.496 V -14.389 H -8.237 V 0 h -5.496 V 2.596 H 0 Z"
             style="fill:#ffffff;fill-opacity:1;fill-rule:nonzero;stroke:none"
             id="path84" /></g><g
           id="g86"
           transform="translate(688.5625,366.6455)"><path
             d="m 0,0 c 0.42,-0.421 0.63,-0.915 0.63,-1.48 0,-0.575 -0.21,-1.074 -0.63,-1.499 -0.421,-0.423 -0.914,-0.637 -1.479,-0.637 -0.567,0 -1.063,0.215 -1.487,0.643 -0.426,0.43 -0.638,0.926 -0.638,1.493 0,0.565 0.212,1.059 0.638,1.48 0.424,0.42 0.92,0.631 1.487,0.631 C -0.914,0.631 -0.421,0.42 0,0"
             style="fill:#ffffff;fill-opacity:1;fill-rule:nonzero;stroke:none"
             id="path88" /></g><g
           id="g90"
           transform="translate(702.1602,377.7217)"><path
             d="m 0,0 v -11.792 h 4.003 c 1.933,0 3.407,0.537 4.422,1.613 1.015,1.076 1.523,2.503 1.523,4.283 0,1.795 -0.508,3.227 -1.523,4.295 C 7.41,-0.534 5.936,0 4.003,0 Z m 4.003,2.596 c 2.662,0 4.797,-0.777 6.406,-2.329 1.61,-1.553 2.414,-3.607 2.414,-6.163 0,-2.556 -0.804,-4.61 -2.414,-6.163 -1.609,-1.553 -3.744,-2.33 -6.406,-2.33 H -2.742 V 2.596 Z"
             style="fill:#ffffff;fill-opacity:1;fill-rule:nonzero;stroke:none"
             id="path92" /></g><g
           id="g94"
           transform="translate(727.7959,377.7471)"><path
             d="m 0,0 v -4.78 h 4.173 c 1.101,0 1.916,0.199 2.445,0.599 0.53,0.401 0.796,1.014 0.796,1.839 0,0.8 -0.27,1.39 -0.808,1.771 C 6.068,-0.191 5.258,0 4.173,0 Z m 4.247,2.57 c 1.948,0 3.44,-0.422 4.471,-1.266 1.031,-0.847 1.547,-2.062 1.547,-3.646 0,-1.44 -0.513,-2.604 -1.536,-3.494 -1.024,-0.891 -2.4,-1.367 -4.13,-1.433 l 5.593,-7.145 H 6.794 L 1.383,-7.269 H 0 v -7.145 H -2.741 V 2.57 Z"
             style="fill:#ffffff;fill-opacity:1;fill-rule:nonzero;stroke:none"
             id="path96" /></g><path
           d="m 750.83,363.333 h -2.741 v 16.984 h 2.741 z"
           style="fill:#ffffff;fill-opacity:1;fill-rule:nonzero;stroke:none"
           id="path98" /><g
           id="g100"
           transform="translate(776.5029,363.333)"><path
             d="M 0,0 H -2.475 L -11.951,12.29 -11.963,0 h -2.741 v 16.984 h 2.475 L -2.742,4.696 V 16.984 H 0 Z"
             style="fill:#ffffff;fill-opacity:1;fill-rule:nonzero;stroke:none"
             id="path102" /></g><g
           id="g104"
           transform="translate(791.8936,370.5762)"><path
             d="M 0,0 H -1.637 V -7.243 H -4.378 V 9.741 h 2.741 V 2.596 H 0.037 L 6.418,9.741 H 9.961 L 2.317,1.455 10.482,-7.243 H 6.759 Z"
             style="fill:#ffffff;fill-opacity:1;fill-rule:nonzero;stroke:none"
             id="path106" /></g><g
           id="g108"
           transform="translate(814.3486,366.6455)"><path
             d="m 0,0 c 0.42,-0.421 0.63,-0.915 0.63,-1.48 0,-0.575 -0.21,-1.074 -0.63,-1.499 -0.421,-0.423 -0.914,-0.637 -1.48,-0.637 -0.566,0 -1.063,0.215 -1.486,0.643 -0.426,0.43 -0.638,0.926 -0.638,1.493 0,0.565 0.212,1.059 0.638,1.48 0.423,0.42 0.92,0.631 1.486,0.631 C -0.914,0.631 -0.421,0.42 0,0"
             style="fill:#ffffff;fill-opacity:1;fill-rule:nonzero;stroke:none"
             id="path110" /></g><g
           id="g112"
           transform="translate(827.9453,377.7217)"><path
             d="m 0,0 v -11.792 h 4.004 c 1.933,0 3.407,0.537 4.422,1.613 1.015,1.076 1.523,2.503 1.523,4.283 0,1.795 -0.508,3.227 -1.523,4.295 C 7.411,-0.534 5.937,0 4.004,0 Z m 4.004,2.596 c 2.662,0 4.797,-0.777 6.406,-2.329 1.61,-1.553 2.414,-3.607 2.414,-6.163 0,-2.556 -0.804,-4.61 -2.414,-6.163 -1.609,-1.553 -3.744,-2.33 -6.406,-2.33 H -2.741 V 2.596 Z"
             style="fill:#ffffff;fill-opacity:1;fill-rule:nonzero;stroke:none"
             id="path114" /></g><path
           d="m 853.619,363.333 h -2.741 v 16.984 h 2.741 z"
           style="fill:#ffffff;fill-opacity:1;fill-rule:nonzero;stroke:none"
           id="path116" /><g
           id="g118"
           transform="translate(879.291,363.333)"><path
             d="M 0,0 H -2.475 L -11.95,12.29 -11.962,0 h -2.741 v 16.984 h 2.474 L -2.741,4.696 V 16.984 H 0 Z"
             style="fill:#ffffff;fill-opacity:1;fill-rule:nonzero;stroke:none"
             id="path120" /></g><g
           id="g122"
           transform="translate(902.6904,363.333)"><path
             d="m 0,0 h -12.387 v 16.984 h 12.23 v -2.57 H -9.646 V 9.839 h 9.162 V 7.267 H -9.646 V 2.572 H 0 Z"
             style="fill:#ffffff;fill-opacity:1;fill-rule:nonzero;stroke:none"
             id="path124" /></g></g></g></g></svg>
